<?xml version="1.0" encoding="utf-8"?>
<svg xmlns="http://www.w3.org/2000/svg" version="1.1" viewBox="0 0 300 300" xmlns:bx="https://boxy-svg.com">
  <defs>
    <style>
      .cls-1 {
        fill: none;
      }

      .cls-2 {
        fill: #90c5ec;
      }

      .cls-3 {
        fill: #325ea9;
      }

      .cls-4 {
        fill: #010101;
      }

      .cls-5 {
        fill: #305ba7;
      }

      .cls-6 {
        fill: #1a1c37;
      }

      .cls-7 {
        fill: #4373b8;
      }

      .cls-8 {
        fill: #335fa9;
      }

      .cls-9 {
        fill: #376cb4;
      }

      .cls-10 {
        fill: #f7a71b;
      }

      .cls-11 {
        fill: #2f5ca7;
      }

      .cls-12 {
        fill: #f8fafd;
      }

      .cls-13 {
        fill: #1d3c6f;
      }

      .cls-14 {
        fill: #4370b6;
      }

      .cls-15 {
        fill: #41bfeb;
      }

      .cls-16 {
        fill: #3c75ba;
      }
    </style>
    <bx:export>
      <bx:file format="png" dpi="300" path="panurus-transparent.png" width="1080" height="1080"/>
      <bx:file format="png" dpi="300" background="#fff" path="panurus-white.png" width="1080" height="1080"/>
    </bx:export>
  </defs>
  <g>
    <g id="Layer_1">
      <path class="cls-1" d="M16.8,259c-1.1,1.6-1,3.6.1,5,1.2,1.4,3.2,1.9,4.9,1,1.5-.8,2.5-2.7,2-4.6-.2-.8-.7-1.7-1.5-2.2-1.9-1.3-4.2-1-5.6.9h0Z"/>
      <path class="cls-1" d="M151.4,215.1s0,0,.1,0c0,0,0,0-.1,0,0,0,0,0,0,0h0Z"/>
      <path class="cls-1" d="M145.8,213.6s0,0,0,0c0,0,0,0,0-.1,0,0,0,0,0,0Z"/>
      <path class="cls-1" d="M152.9,209.5s0,0,0,0c0,0,0,0,0,.1,0,0,0,0,0,0Z"/>
      <path class="cls-1" d="M153.3,212.8s0,0,0,0c0,0,0,0,0,.1,0,0,0,0,0-.1Z"/>
      <path class="cls-4" d="M225.8,63.4l13.5-15.9,9.4-10.9-.8-1.9-24.3,28.8-9.7,16.2-19.2,4.1c-.2,0-.5,0-.7.2h-.4c-.2,0-.4,0-.5.2l-6.6,1.3c-.2,0-.5,0-.7.2h-.4c-.3,0-.5,0-.7.2l-4.6.9c-.2,0-.4,0-.5.2l-1.3.2c-.3,0-.5,0-.7.2h-.2c-.3,0-.7,0-.9.2h-.4c-.2,0-.4,0-.5.2l-5.7,1.1c-.2,0-.4,0-.5.2h-.4c-.3,0-.5,0-.7.2h-.4c-.2,0-.4,0-.5.2l-3.7.7c-.2,0-.4,0-.5.2l-1.5.2c-.2,0-.4,0-.5.2h-.4c-.2,0-.4,0-.5.2l-.9.2-2.1,2,35.6-7.7,20.2-4.3-21.6,37.6-6.6,11.6-16.3,4.4c0,.2-.3.2-.4,0l-48.9,12.7-22.2,6.1-1.3,2c5.6-1.8,11.4-3.4,17.2-5l39.3-10.3,15.7-4.1h.6c0,0,11.2-2.9,11.2-2.9.1,0,.3.1.4.1-.2.3-.5.3-.8.5l-21.1,10.7-36.2,17.9-40.8,20-.8,2.1,52.1-25.6,13-6.4,24.4-12.3,9.6-5,1.5-.6h.3c-.2.2-.4.5-.5.7-.4.1-.6.5-.8.8l-16.1,16.9-28.2,29.9c-.1.1-.2.2-.4.4l-4.3,4.6,15.3,19.6c0,0,.2-.1.3-.2v-.4s-.3-.2-.3-.2l-14.2-17.5v-.3s25.3-26.9,25.3-26.9l1.7-1.8,2-2.3c.4-.4.9-.7,1.1-1.4,1.3-.8,2.3-2.4,3.5-3.4.2-.2.5-.5.7-.7l12.4-13.1,7-7.4,14.7,14.2.7.7,15.7,15.1.8.8,1.7,1.7,1.5-.8-22.6-21.8-12-11.5,4.1-7.4,24-41.8,4.6,54.6c.3.3,0,.7,0,.9l1.3,16.4c0,.2-.2.5.1.7l.3,5v1.2c.1,0,.2.7.2.7l.2,2.7v.2c0,0,1.7-1,1.7-1h-.3c0,0-5.1-63.6-5.1-63.6l-1.6-20.3,8.4-14.2,30.9,13.5.4-1.5-13-5.8-17.1-7.4h0Z"/>
      <path class="cls-4" d="M147.2,208s0,0,0,0c0,0,0,0,0,0,0,0,0,0,.1,0Z"/>
      <path class="cls-4" d="M150.3,207.5s0,0,0,0c0,0,.1,0,.2,0,0,0,0,0,0,0h0Z"/>
      <path class="cls-14" d="M79.3,158.2s0,0,0-.1c0-.1-.2-.2-.2-.3,0,0,0,0,0,0-.8-1-2-1.6-3.4-1.6-2.5,0-4.5,2-4.5,4.5s2,4.5,4.5,4.5,4.5-2,4.5-4.5-.2-1.4-.5-2.1c0,0,0-.1,0-.2,0,0,0-.1-.1-.2h0ZM79.5,160.6c0,2.2-1.8,4-4,4s-4-1.8-4-4,1.8-4,4-4,4,1.8,4,4h0Z"/>
      <path class="cls-7" d="M23.8,260.3c.5,1.9-.4,3.8-2,4.6-1.7.9-3.7.5-4.9-1-1.2-1.4-1.2-3.4-.1-5,1.3-1.8,3.7-2.2,5.6-.9v-.6c-1.9-1.2-4.4-.7-5.8.9-1.4,1.8-1.4,4.3.1,5.9,1.5,1.6,4.1,2,5.9.6,1.6-1.2,2-3,1.9-4.7-.2-.1-.4,0-.6,0h0Z"/>
      <path class="cls-11" d="M217.2,162.2l-15.7-15.1-.7-.7-14.7-14.2-7,7.4-12.4,13.1c-.2.3-.4.5-.7.7-1.2,1.1-2.1,2.6-3.5,3.4-.2.6-.7,1-1.1,1.4l-2,2.3-1.7,1.8-25.3,26.9v.3s14.2,17.5,14.2,17.5c.1,0,.2.1.3.2v.4c.1,0,.3,0,.4.3,0,0,0,0,0,0,0,0,.1,0,.2-.1,0,0,0,0,.1,0,0,0,.2,0,.2-.1,0,0,0,0,.1,0,0,0,.2,0,.2,0,0,0,.1,0,.2,0,0,0,.2,0,.2,0,0,0,.1,0,.2,0,0,0,.1,0,.2,0,0,0,.1,0,.2,0,0,0,0,0,.1,0s0,0,0,0c0,0,.1,0,.2,0,0,0,.1,0,.2,0,0,0,.1,0,.2,0,0,0,.2,0,.2,0,0,0,0,0,0,0,0,0,0,0,0,0,0,0,.2,0,.2,0,0,0,0,0,.1,0,0,0,.2,0,.2,0,0,0,0,0,.1,0,0,0,.1,0,.2.1,0,0,0,0,.1,0,0,0,.1,0,.2.1,0,0,0,0,.1.1,0,0,.1,0,.2.1,0,0,0,0,.1.1,0,0,.1.1.2.2,0,0,0,0,.1.1,0,0,0,.1.1.2,0,0,0,0,0,0,0,0,0,0,0,0,0,0,0,.1.1.2,0,0,0,0,0,0,.3,0,.5-.1.7-.3l23.6-15.2,43.6-27.8v-.4s-1-1-1-1l-1.7-1.7-.8-.8h0Z"/>
      <path class="cls-14" d="M146.5,207l.3.2c0-.1-.1-.2-.3-.2Z"/>
      <path class="cls-15" d="M216.2,78.9l1.6,20.3,5.1,63.6h.3c0,0,18.8-30,18.8-30l4.6-16.9,10.1-36.8c0-.3,0-.5-.4-.7l-.8-.3-30.9-13.5-8.4,14.2h0Z"/>
      <path class="cls-5" d="M221.3,160.9v-.7s-.2-1.2-.2-1.2l-.3-5c-.3-.2,0-.5-.1-.7l-1.3-16.4c0-.3.2-.6,0-.9l-4.6-54.6-24,41.8-4.1,7.4,12,11.5,22.6,21.8h.1c0,.1,0-.1,0-.1v-.2c0,0-.1-2.7-.1-2.7h0Z"/>
      <polygon class="cls-10" points="261.6 45.8 259.3 54.5 263.4 60.2 284.5 50.3 261.6 45.8"/>
      <path class="cls-3" d="M160.7,91.1h.4c.1-.2.3-.2.5-.2l1.5-.2c.1-.2.3-.2.5-.2l3.7-.7c.1-.1.3-.2.5-.2h.4c.2-.2.4-.2.7-.2h.4c.1-.2.3-.2.5-.2l5.7-1.1c.1-.1.3-.2.5-.2h.4c.2-.3.6-.2.9-.2h.2c.2-.2.5-.2.7-.2l1.3-.2c.1-.2.3-.2.5-.2l4.6-.9c.2-.2.4-.2.7-.2h.4c.2-.2.5-.2.7-.2l6.6-1.3c.1-.1.3-.2.5-.2h.4c.2-.3.5-.2.7-.2l19.2-4.1,9.7-16.2,24.3-28.9h0c0-.2,0-.4-.2-.5h-44.6c-.2.6-.6,1-1,1.5l-28.1,34.8-15.9,19.6-1.1,1.4c-.2.2-.1.4.2.4l2.2-.4.9-.2c.1-.1.3-.2.5-.2h0Z"/>
      <ellipse class="cls-6" cx="244.8" cy="52.7" rx="4.5" ry="4.5"/>
      <ellipse class="cls-12" cx="75.5" cy="160.6" rx="4" ry="4"/>
      <path class="cls-2" d="M168.1,135.1c.1.2.4.1.4,0l16.3-4.4,6.6-11.6,21.6-37.6-20.2,4.3-35.6,7.7h0s-3.2.7-3.2.7l-17.7,14.7-56.2,47.2c-.6.5-1,.8-1.4,1.4,0,0,.1.1.2.2,0,0,0,0,0,0,0,0,.2.2.2.3,0,0,0,0,0,.1,0,0,0,.1.1.2,0,0,0,.1,0,.2,0,0,0,0,0,0l13.8-3.7,3.7-1,22.2-6.1,48.9-12.7h0Z"/>
      <path class="cls-16" d="M135.9,183.2l28.2-29.9,16.1-16.9c.2-.3.4-.6.8-.8,0-.3.3-.5.5-.7h-.3s-1.5.6-1.5.6l-9.6,5-24.4,12.3-13,6.4-52.1,25.6h-.3c0,.1-1.1,1.5-1.1,1.5l-16.1,20.3-40.9,50.8v.6c.8.5,1.3,1.3,1.5,2.2.2,0,.4-.1.6,0l63.5-41.7,14.8-9.9,27.5-19.2.2-.3.6-.7.3-.3,4.3-4.6c.1-.1.2-.3.4-.4h0Z"/>
      <path class="cls-9" d="M153.2,212.9c0,0,0,.2,0,.2,0,0,0,0,0,.1,0,0,0,.2-.1.2,0,0,0,0,0,.1,0,.1-.1.2-.2.3,0,0-.1.2-.2.2,0,0,0,0,0,0,0,0-.1.1-.2.2,0,0,0,0-.1.1,0,0-.1.1-.2.2,0,0,0,0-.1.1,0,0-.1,0-.2.1,0,0-.1,0-.2.1,0,0,0,0-.1,0,0,.2,0,.4,0,.6l5.9,8.3c0,0,.2-.2.4-.1.1,0,.2,0,.3.2.3-.2.7-.4,1-.4v-.5s-5.3-9.8-5.3-9.8c0-.2,0-.5,0-.6h-.4c0,.1,0,.1,0,.2h0Z"/>
      <path class="cls-14" d="M163.6,225.7c.8,1.6.5,3.6-.9,4.9-1.3,1.2-3.3,1.4-4.8.4-1.2-.8-1.8-2.2-1.7-3.6,0-1.2.7-2.5,1.8-3.2-.1-.1-.2-.2-.3-.2-.2,0-.3,0-.4.1-1.4,1.3-2.1,3.3-1.3,5.3.8,2.1,3,3.1,5.2,2.6,2-.5,3.5-2.5,3.3-4.7-.1-1.4-.7-2.5-1.7-3.2-1.1-.8-2.5-1-3.8-.7v.5c2-.5,3.8.4,4.7,2h0Z"/>
      <path class="cls-14" d="M151.4,215.1s0,0,0,0c0,0-.2,0-.3.1,0,0,0,0-.1,0,0,0-.2,0-.2,0,0,0,0,0-.1,0,0,0-.1,0-.2,0,0,0-.1,0-.2,0,0,0-.1,0-.2,0,0,0-.2,0-.3,0,0,0,0,0-.1,0,0,0-.2,0-.3,0h0s0,0-.1,0c0,0-.2,0-.3,0,0,0-.1,0-.2,0,0,0-.1,0-.2,0,0,0-.1,0-.2,0,0,0-.1,0-.2,0,0,0-.1,0-.2,0,0,0-.1,0-.2,0,0,0-.1,0-.2,0,0,0-.1,0-.2,0,0,0-.1,0-.2,0,0,0-.1,0-.2-.1,0,0,0,0-.1,0,0,0-.1,0-.2-.1,0,0,0,0-.1-.1,0,0-.1-.1-.2-.2,0,0,0,0-.1-.1,0,0,0-.1-.1-.2,0,0,0,0-.1-.2,0,0,0-.1-.1-.2,0,0,0-.1-.1-.2,0,0,0,0,0,0,0,0,0,0,0,0,0,0,0-.1-.1-.2,0,0,0,0,0-.2,0,0,0-.1,0-.2,0,0,0-.1,0-.2,0,0,0-.1,0-.2s0-.1,0-.2c0,0,0-.1,0-.2,0,0,0-.2,0-.2,0,0,0-.1,0-.2,0,0,0-.2,0-.3s0,0,0,0,0,0,0,0c0,0,0-.2,0-.2,0,0,0-.1,0-.2,0,0,0-.1,0-.2,0,0,0-.1,0-.2,0,0,0-.1,0-.2,0,0,0-.1,0-.2,0,0,0-.1,0-.2,0,0,0-.1,0-.2,0,0,0-.1,0-.2,0,0,0-.1,0-.2,0,0,0-.1.1-.2,0,0,0,0,0-.1,0,0,0-.1.1-.2,0,0,0,0,0-.1,0,0,.1-.1.2-.2,0,0,0,0,.1-.1,0,0,.1,0,.2-.1,0,0,0,0,.1-.1,0,0,0,0,0,0,0,0,0,0,0,0,0,0,.1,0,.2-.1,0,0,0,0,0,0,0-.3-.2-.4-.3-.3,0,0-.2.1-.3.2-.9.7-1.6,1.8-1.7,3.1-.2,1.8.5,3.4,1.9,4.4,1.3,1,3.1,1.1,4.7.3,0-.1,0-.3,0-.6h0Z"/>
      <path class="cls-7" d="M153,209.5c0,0,0,.2.1.3,0,0,0,0,0,0,0,.1,0,.2.1.4,0,0,0,0,0,0,0,0,0,.2,0,.3,0,0,0,0,0,0,0,0,0,.2,0,.2,0,0,0,0,0,0,0,0,0,.2,0,.2,0,0,0,0,0,0,0,0,0,.1,0,.2h0s0,0,0,.1c0,.1,0,.2,0,.3,0,0,0,0,0,0,0,.1,0,.2,0,.4,0,0,0,0,0,0,0,.1,0,.2,0,.4,0,0,0,0,0,0h.4c.5-1.5-.3-2.6,0-3.6-.2.1-.4.2-.7.3,0,0,0,0,0,0h0Z"/>
      <path class="cls-12" d="M146.9,208.2s0,0,0,0c0,0,0,0,0,0,0,0,0,0-.1.1,0,0-.1,0-.2.1s0,0-.1.1c0,0-.1.1-.2.2,0,0,0,0,0,.1,0,0,0,.1-.1.2,0,0,0,0,0,.1,0,0,0,.1-.1.2,0,0,0,.1,0,.2,0,0,0,.1,0,.2,0,0,0,.1,0,.2,0,0,0,.1,0,.2,0,0,0,.1,0,.2,0,0,0,.1,0,.2,0,0,0,.1,0,.2,0,0,0,.1,0,.2,0,0,0,.1,0,.2,0,0,0,.2,0,.2s0,0,0,0,0,0,0,0c0,0,0,.2,0,.3,0,0,0,.1,0,.2,0,0,0,.2,0,.2,0,0,0,.1,0,.2,0,0,0,.1,0,.2,0,0,0,.1,0,.2,0,0,0,.1,0,.2,0,0,0,.1,0,.2,0,0,0,0,0,.2,0,0,0,.1.1.2,0,0,0,0,0,.1,0,0,0,.1.1.2,0,0,0,.1.1.2s0,.1.1.2c0,0,0,.1.1.2,0,0,0,0,.1.1,0,0,.1.1.2.2,0,0,0,0,.1.1,0,0,.1,0,.2.1,0,0,0,0,.1,0,0,0,.1,0,.2.1,0,0,.1,0,.2,0,0,0,.1,0,.2,0,0,0,.1,0,.2,0,0,0,.1,0,.2,0,0,0,.1,0,.2,0,0,0,.1,0,.2,0,0,0,.1,0,.2,0,0,0,.1,0,.2,0,0,0,.1,0,.2,0,0,0,.2,0,.3,0,0,0,0,0,.1,0h0c0,0,.2,0,.3,0,0,0,0,0,.1,0,0,0,.2,0,.3,0,0,0,.1,0,.2,0,0,0,.1,0,.2,0,0,0,.1,0,.2,0,0,0,0,0,.1,0,0,0,.2,0,.2,0,0,0,0,0,.1,0,0,0,.2,0,.3-.1,0,0,0,0,.1,0,0,0,.1,0,.2-.1,0,0,.1,0,.2-.1,0,0,0,0,.1-.1,0,0,.1-.1.2-.2,0,0,0,0,.1-.1,0,0,.1-.1.2-.2s0,0,0,0c0,0,.1-.2.2-.2,0,0,.1-.2.2-.3,0,0,0,0,0-.1,0,0,0-.2.1-.2,0,0,0,0,0-.1,0,0,0-.2,0-.2,0,0,0,0,0-.1,0-.1,0-.2,0-.4,0,0,0,0,0,0,0-.1,0-.2,0-.4,0,0,0,0,0,0,0-.1,0-.2,0-.3,0,0,0,0,0-.1h0c0,0,0-.2,0-.2,0,0,0,0,0,0,0,0,0-.2,0-.2,0,0,0,0,0,0,0,0,0-.2,0-.2,0,0,0,0,0,0,0-.1,0-.2,0-.3,0,0,0,0,0,0,0-.1,0-.2-.1-.4,0,0,0,0,0,0,0,0,0-.2-.1-.3,0,0,0,0,0-.1,0,0,0-.1-.1-.2,0,0,0,0,0,0,0,0,0,0,0,0,0,0,0-.1-.1-.2,0,0,0,0-.1-.1,0,0,0-.1-.2-.2,0,0,0,0-.1-.1,0,0-.1,0-.2-.1,0,0,0,0-.1-.1,0,0-.1,0-.2-.1,0,0,0,0-.1,0,0,0-.1,0-.2-.1,0,0,0,0-.1,0,0,0-.2,0-.2,0,0,0,0,0-.1,0,0,0-.2,0-.2,0,0,0-.1,0-.2,0,0,0-.2,0-.2,0,0,0-.1,0-.2,0,0,0-.1,0-.2,0,0,0-.1,0-.2,0,0,0,0,0,0,0,0,0,0,0-.1,0,0,0-.1,0-.2,0,0,0-.1,0-.2,0,0,0-.1,0-.2,0,0,0-.2,0-.2,0,0,0-.1,0-.2,0,0,0-.2,0-.2,0,0,0,0,0-.1,0,0,0-.2,0-.2.1,0,0,0,0-.1,0,0,0-.2,0-.2.1,0,0,0,0-.1,0,0,0-.1,0-.2.1h0Z"/>
      <path class="cls-12" d="M156.1,227.3c0,1.4.6,2.8,1.7,3.6,1.6,1.1,3.5.8,4.8-.4,1.4-1.2,1.8-3.2.9-4.9-.9-1.6-2.7-2.6-4.6-2-.3,0-.8.3-1,.4-1.1.8-1.8,2-1.8,3.2h0Z"/>
      <path class="cls-8" d="M260.1,45.4l-9.6-10.9-1.8,2.1-9.4,10.9-13.5,15.9,17.1,7.4,13,5.8h.1c0,.2.7.3.8,0l5.2-15.1-4.3-6.8s2.3-9.4,2.3-9.4ZM244.8,57.3c-2.5,0-4.5-2-4.5-4.5s2-4.5,4.5-4.5,4.5,2,4.5,4.5-2,4.5-4.5,4.5Z"/>
      <path class="cls-13" d="M158.4,144.9l21.1-10.7c.3-.1.6-.2.8-.5-.1,0-.3,0-.4-.1l-11.2,2.8h-.6c0,0-15.7,4.2-15.7,4.2l-39.3,10.3c-5.9,1.5-11.6,3.1-17.2,5-1.1.3-2.1.7-3.2,1.1l-3.5,5.4-16.5,24.6,4.4-2,4.4-2.1,40.8-20,36.2-17.9h0Z"/>
    </g>
  </g>
</svg>